<svg width="48" height="48" viewBox="0 0 48 48" fill="none" xmlns="http://www.w3.org/2000/svg">
<g clip-path="url(#clip0_460_998)">
<circle cx="24" cy="24" r="24" fill="#2D8380"/>
<path d="M17.7354 6.04331C17.5966 6.13684 17.5404 6.36074 17.6173 6.52228C17.6379 6.5648 17.7679 6.67249 17.9068 6.76319C18.7517 7.31869 19.7444 8.22562 20.3973 9.03053C20.7606 9.48116 21.3929 10.3569 21.3929 10.4108C21.3929 10.4249 21.2333 10.4958 21.0384 10.5695L20.6868 10.7027L20.2939 10.3172C18.2495 8.30214 15.9126 7.18265 13.2094 6.9219C12.589 6.86238 11.6259 6.83404 11.4811 6.87372C11.233 6.93607 11.1148 7.16564 11.2153 7.3697C11.2862 7.51141 11.3364 7.53692 11.7323 7.63895C13.5817 8.10659 15.2449 9.14673 16.8639 10.8501C17.2627 11.2695 18.0545 12.1991 18.0515 12.2473C18.0515 12.2757 17.5198 12.6781 17.4548 12.7036C17.4341 12.7093 17.2864 12.5988 17.1239 12.457C16.666 12.0546 16.0042 11.5558 15.5374 11.261C13.6732 10.0848 11.8918 9.6002 9.43972 9.59736H8.93453L8.85181 9.47833C8.66569 9.20908 8.43525 9.08721 8.11028 9.08721C7.72031 9.08721 7.42783 9.24876 7.24467 9.56902C7.14717 9.73907 7.13831 9.77025 7.13831 9.99415C7.13831 10.1982 7.15013 10.2549 7.21808 10.3768C7.30671 10.544 7.50464 10.7282 7.69077 10.8189C7.86803 10.9067 8.18709 10.9238 8.39389 10.8586C8.54752 10.8104 8.77795 10.6233 8.89908 10.4476C8.94635 10.3796 8.95226 10.3796 9.12656 10.4136C9.72629 10.5326 10.9287 11.0456 11.5698 11.4566C12.7515 12.2133 13.7855 13.1542 15.0116 14.594L15.2006 14.8151L14.9495 15.056C14.8136 15.1864 14.6925 15.294 14.6807 15.294C14.6659 15.294 14.4916 15.1693 14.2907 15.0135C13.0706 14.081 11.9745 13.5227 10.6687 13.1713C9.75583 12.9275 8.99657 12.834 7.7794 12.8141L7.12058 12.8028L7.029 12.6724C6.85174 12.4174 6.60063 12.2927 6.26679 12.2898C5.88273 12.2898 5.60502 12.4655 5.43072 12.8198C5.35095 12.9842 5.34504 13.0239 5.35686 13.2109C5.38345 13.5822 5.57843 13.8543 5.93295 14.0102C6.07476 14.0725 6.12498 14.081 6.32292 14.0697C6.65085 14.0527 6.88128 13.9223 7.06741 13.6502L7.11763 13.5794L7.37761 13.6446C8.02165 13.8061 8.77204 14.1405 9.46631 14.5713C10.0099 14.9058 10.2669 15.0928 10.8135 15.5491C11.4221 16.0564 12.5624 17.1986 12.5565 17.2921C12.5565 17.3063 12.4058 17.4452 12.2197 17.5954L11.8859 17.8731L11.6525 17.6804C10.9878 17.1278 10.2462 16.6686 9.52244 16.3597C8.79273 16.0451 8.14278 15.8864 7.19149 15.79C6.81038 15.7504 6.78084 15.7532 6.66267 15.8014C6.45291 15.8921 6.37019 16.1613 6.50609 16.3257C6.53858 16.3654 6.76311 16.5269 6.99946 16.68C7.93302 17.2836 8.77204 18.0659 9.56676 19.072C9.68788 19.2222 9.77651 19.3583 9.76765 19.3724C9.74697 19.4064 8.87249 19.9421 8.84295 19.9421C8.83113 19.9421 8.73659 19.8089 8.63024 19.6502C8.23141 19.0493 7.62873 18.4031 7.18262 18.1027C6.60949 17.7173 5.88568 17.4509 5.64638 17.5387C5.45731 17.6067 5.37459 17.7853 5.43663 17.9865C5.47799 18.1197 5.53707 18.1594 5.85909 18.2529C6.0009 18.2954 6.18111 18.355 6.25792 18.3861C6.64789 18.5477 7.25353 19.0323 7.611 19.4745C7.87393 19.8004 8.19595 20.2737 8.17527 20.3049C8.16641 20.319 8.02165 20.4069 7.85621 20.4948C7.68781 20.5855 7.51942 20.6761 7.48396 20.6988C7.41602 20.7385 7.4042 20.73 7.18853 20.5316C6.84879 20.217 6.67153 20.081 6.24906 19.8117C5.54003 19.3554 4.74236 19.0323 3.95061 18.8793C3.48678 18.7886 3.32429 18.7886 3.19135 18.8736C3.05545 18.9586 2.97864 19.1145 3.00523 19.2506C3.02295 19.3384 3.11158 19.4404 3.55177 19.8599C4.03628 20.3275 4.41739 20.7413 4.70396 21.1041C4.90485 21.3592 5.15006 21.7616 5.12347 21.7871C5.09393 21.8155 4.19877 22.1783 3.88857 22.2888C3.7763 22.3285 3.64631 22.3852 3.602 22.4135C3.38338 22.558 3.45428 22.9605 3.71426 23.0285C3.79107 23.0483 3.85607 23.0455 3.97129 23.0115C4.57101 22.8415 6.70698 21.9005 7.97438 21.2486C8.193 21.1381 8.37321 21.0474 8.37912 21.0474C8.38503 21.0474 8.39389 21.413 8.3998 21.8608L8.40866 22.6771L8.49139 22.8386C8.55343 22.9577 8.71591 23.1419 9.11179 23.5358C9.8031 24.2217 11.2537 25.6813 11.812 26.251C12.2345 26.6789 12.2522 26.7016 12.3024 26.883C12.4413 27.3818 12.9317 27.6425 13.4517 27.498C13.6673 27.4385 13.886 27.2514 13.9982 27.0332C14.1134 26.8065 14.1134 26.5117 13.9982 26.2991C13.8919 26.1036 13.7382 25.959 13.5403 25.8712C13.4015 25.8117 13.3512 25.8032 13.1385 25.8145C12.9317 25.8258 12.8667 25.84 12.7279 25.9165C12.524 26.0271 12.4915 26.0271 12.4118 25.9307C12.3468 25.8513 11.6141 25.1088 10.9051 24.4059C10.1931 23.6974 9.35404 22.85 9.21224 22.6969L9.07338 22.5467L9.07634 21.6341C9.07634 21.1324 9.0852 20.6988 9.09702 20.6733C9.10884 20.6478 9.25655 20.5458 9.4279 20.4466C10.5062 19.8174 11.9922 18.7574 12.8933 17.9723C13.0853 17.8051 13.2508 17.6748 13.2596 17.6833C13.2656 17.6918 13.2715 18.3266 13.2715 19.0918C13.2685 20.1036 13.2774 20.5174 13.304 20.6025C13.3305 20.696 13.431 20.8122 13.7826 21.1551L14.2287 21.5887V21.9203C14.2287 22.2349 14.2346 22.2604 14.3173 22.405C14.4296 22.5977 14.6216 22.7593 14.8107 22.8216C15.0234 22.8868 15.4222 22.867 15.6024 22.7791C15.9303 22.6204 16.1076 22.354 16.1283 21.9969C16.149 21.6058 15.9806 21.3167 15.629 21.1466L15.4754 21.0701L15.4902 19.9421C15.502 18.936 15.5079 18.8084 15.5522 18.7404C15.5817 18.6979 15.9156 18.355 16.2967 17.9723C16.8462 17.4197 16.9939 17.2581 17.0175 17.1731C17.0412 17.0739 17.0796 15.4528 17.0796 14.4325V14.0102L17.3543 13.7551C17.9659 13.1911 18.9615 12.457 19.6971 12.0348C21.0265 11.2695 22.2703 10.8047 23.7091 10.5355C24.489 10.3881 25.7357 10.2606 25.7357 10.3286C25.7357 10.3456 25.6707 10.4023 25.5939 10.459C25.3841 10.6063 24.9971 11.0031 24.8258 11.2469C24.5953 11.5728 24.3885 11.9696 24.3176 12.2048C24.164 12.7461 24.1404 12.97 24.1374 14.0584C24.1345 14.6224 24.1256 15.1495 24.1167 15.2345C24.0961 15.3762 24.0872 15.3932 23.9336 15.5038C23.7829 15.6143 23.6766 15.7333 23.5347 15.9459C23.4904 16.0139 23.4284 16.0508 23.2748 16.1018C22.8493 16.2407 22.4269 16.5638 22.1758 16.935C21.8921 17.3545 21.7887 17.7371 21.8153 18.2813C21.8419 18.8453 21.9453 19.1003 22.486 19.9364C22.6189 20.1433 22.7223 20.319 22.7194 20.3219C22.7134 20.3275 22.6485 20.3672 22.5746 20.4097C22.5007 20.4522 22.3501 20.5543 22.2378 20.6308L22.034 20.7753L21.3131 20.0725L20.5952 19.3724V17.927C20.5952 16.8925 20.6041 16.4617 20.6277 16.4192C20.7075 16.2718 21.774 15.141 21.9128 15.0531C21.9601 15.0248 22.0605 15.0106 22.226 15.0078C22.7519 15.005 22.8671 14.9483 22.87 14.6932C22.87 14.5855 22.8523 14.5402 22.7873 14.4693L22.7046 14.3786L22.2762 14.3758C21.7119 14.3729 21.6676 14.3928 21.2363 14.8207C20.7547 15.2969 20.2082 15.8779 20.1018 16.0253C20.0427 16.1075 19.9925 16.2208 19.9748 16.32C19.9541 16.4192 19.9453 17.0427 19.9512 18.0205C19.96 19.5368 19.96 19.5623 20.025 19.6728C20.0575 19.738 20.4209 20.1093 20.8286 20.5004C21.2363 20.8915 21.5701 21.226 21.5701 21.243C21.5701 21.2571 21.5081 21.3507 21.4283 21.4499C21.2511 21.6738 21.0324 22.0791 20.9497 22.337C20.7252 23.0455 20.7193 23.9298 20.9409 24.6015C21.0384 24.9047 21.2629 25.3185 21.4697 25.5793L21.6351 25.7918L21.1004 26.2963C20.6602 26.7101 20.5538 26.798 20.5125 26.7753C20.4239 26.7299 19.9275 26.2255 19.8419 26.0922C19.7946 26.0214 19.7237 25.874 19.6823 25.7663L19.6055 25.5679L19.5907 23.2439C19.576 21.0418 19.573 20.917 19.5198 20.8434C19.3839 20.6478 19.0383 20.7017 18.9674 20.9312C18.9467 21.0021 18.9408 21.7475 18.9467 23.3431C18.9585 25.6189 18.9585 25.6558 19.0235 25.891C19.1151 26.217 19.2687 26.4834 19.511 26.7328C19.6735 26.9 19.706 26.9453 19.6646 26.9595C19.5878 26.9878 19.1683 26.9425 19.1033 26.9C18.9467 26.798 17.7827 25.6586 17.7413 25.5679C17.7059 25.4857 17.7 25.0975 17.7 23.0342V20.594L17.8182 20.5373C17.9925 20.4522 18.1668 20.2737 18.2583 20.0866C18.3233 19.9534 18.3352 19.8911 18.3322 19.7012C18.3292 19.4433 18.2702 19.2817 18.1165 19.1145C17.954 18.9331 17.9747 18.8878 18.4799 18.3266C18.9792 17.7683 18.9526 17.8476 18.9644 16.901L18.9733 16.116L19.0826 16.0621C19.2274 15.9913 19.4194 15.7929 19.5021 15.6342C19.5907 15.4641 19.6085 15.2119 19.5494 14.988C19.508 14.8434 19.508 14.8009 19.5376 14.7612C19.638 14.628 20.6986 13.5624 20.7961 13.4972C20.8965 13.432 21.3958 13.2818 21.5229 13.2818C21.5524 13.2818 21.6469 13.3441 21.7326 13.4178C21.9837 13.6389 22.2821 13.7012 22.6425 13.602C22.8671 13.5425 23.1005 13.3441 23.2157 13.1174C23.3309 12.8935 23.3309 12.5789 23.2186 12.3465C23.0561 12.0007 22.7991 11.8335 22.4121 11.8137C22.1196 11.7995 21.9099 11.8675 21.706 12.0376C21.5465 12.1736 21.4904 12.2672 21.4224 12.5024L21.3722 12.6724L20.9615 12.7858C20.7341 12.851 20.4977 12.9303 20.4386 12.9672C20.3766 13.004 20.028 13.3356 19.6616 13.7069C18.9969 14.3814 18.9969 14.3814 18.9024 14.3559C18.7606 14.3163 18.4976 14.3248 18.3263 14.3729C18.1284 14.4296 17.8772 14.6479 17.7709 14.8576C17.6645 15.0701 17.6557 15.4074 17.7561 15.62C17.8329 15.79 18.019 15.9799 18.1727 16.0451C18.3174 16.1075 18.3174 16.116 18.2967 16.918L18.282 17.5642L17.8684 18.0234C17.6261 18.2926 17.4311 18.5392 17.3957 18.6157C17.3543 18.7036 17.3159 18.7517 17.2805 18.7517C17.1328 18.7517 16.8816 18.8793 16.7073 19.0465C16.4887 19.2562 16.4149 19.4319 16.4178 19.7295C16.4208 20.0555 16.6098 20.3559 16.9171 20.5118L17.0471 20.5798L17.0559 23.1447L17.0648 25.7096L17.1475 25.8797C17.2184 26.0242 17.3455 26.1603 17.9747 26.7639C18.4651 27.2344 18.7606 27.4952 18.8374 27.5292C18.9408 27.5745 19.0324 27.5802 19.6203 27.5717C19.9866 27.5689 20.3175 27.5717 20.3559 27.5802C20.4357 27.6 21.7858 28.8527 21.969 29.0823C22.0369 29.1645 22.1255 29.3005 22.1639 29.3856C22.2348 29.5358 22.2348 29.5358 22.2437 30.7601C22.2496 31.4347 22.2437 31.9873 22.2289 31.9873C22.2171 31.9845 22.1728 31.9193 22.1314 31.84C21.9896 31.5594 21.6528 31.0662 21.3692 30.7261C21.0384 30.3293 20.347 29.652 19.9453 29.3374C19.4194 28.9236 18.7369 28.5381 18.1402 28.3199C17.8625 28.2179 17.8506 28.2094 17.5345 27.8976C17.0293 27.4016 15.7915 26.1659 15.4813 25.8513C15.3277 25.6926 14.4827 24.8509 13.6023 23.978C12.722 23.1079 11.9745 22.3596 11.942 22.32C11.8888 22.2548 11.8859 22.2321 11.9154 22.1357C11.9686 21.9515 11.9302 21.5944 11.8445 21.43C11.7441 21.2458 11.5491 21.0673 11.363 20.9879C11.1709 20.9057 10.8637 20.9 10.6392 20.9737C10.4206 21.0474 10.1665 21.2883 10.0956 21.4924C10.0188 21.7163 10.0276 22.0337 10.1163 22.2208C10.2108 22.4163 10.394 22.592 10.5978 22.6827C10.7396 22.7451 10.7869 22.7508 11.0026 22.7366C11.1355 22.7309 11.2803 22.7196 11.3216 22.7139C11.3866 22.7054 11.4811 22.7933 12.0041 23.3289C12.3379 23.6719 13.5049 24.8452 14.595 25.9364C15.6851 27.0275 16.5773 27.9316 16.5773 27.943C16.5773 27.9571 16.5537 27.96 16.5271 27.9515C16.4976 27.943 16.2996 27.9231 16.084 27.9061C15.4399 27.8579 14.6127 27.9288 13.9657 28.0903C13.2006 28.2802 12.3202 28.6884 11.682 29.1503C11.6289 29.19 11.5786 29.2127 11.5698 29.2042C11.5609 29.1985 11.5491 28.7932 11.5402 28.3057C11.5284 27.6255 11.5136 27.4016 11.4841 27.3421C11.4605 27.2996 11.2005 27.019 10.9021 26.7158C9.64061 25.4234 7.80598 23.5415 7.65827 23.3856C7.21512 22.9208 6.99059 22.7196 6.89606 22.7026C6.6863 22.6657 6.50313 22.8131 6.50313 23.02C6.50313 23.1589 6.42337 23.0682 7.5076 24.1792C7.82371 24.5051 8.26981 24.9642 8.49729 25.1995C8.72478 25.4347 9.17088 25.8939 9.48699 26.217C10.2078 26.951 10.6717 27.4385 10.778 27.5632L10.8607 27.6624L10.8489 28.8697C10.8401 29.9779 10.843 30.0884 10.8903 30.1848C10.9523 30.3123 11.0646 30.3719 11.2389 30.3719C11.3896 30.3719 11.5491 30.2755 11.7057 30.0884C11.9184 29.8334 12.5683 29.3912 13.0706 29.1588C13.6969 28.8669 14.1371 28.7309 14.6954 28.6572C16.2671 28.4503 17.7443 28.7564 18.9644 29.5443C20.4534 30.5022 21.6085 31.9873 21.969 33.4101C22.3471 34.8924 22.223 36.2556 21.6026 37.4715C21.2422 38.1743 20.9734 38.5201 20.0723 39.4327C19.5848 39.9287 19.5612 39.957 19.5612 40.0647C19.5612 40.3368 19.8566 40.4898 20.1137 40.3566C20.2525 40.283 21.2422 39.2768 21.5731 38.8744C21.6322 38.8035 21.8183 38.5428 21.9896 38.2934C22.1639 38.044 22.5007 37.6103 22.74 37.3297C23.2718 36.7034 23.5377 36.3605 23.8538 35.8928C23.9868 35.6916 24.1049 35.53 24.1197 35.53C24.1315 35.53 24.1404 36.352 24.1404 37.3553V39.1833L23.972 39.291C23.5347 39.5716 23.4018 40.0506 23.6381 40.5069C23.7977 40.8214 24.1079 41 24.489 41C25.0119 41 25.4196 40.6401 25.461 40.1441C25.4935 39.7785 25.2748 39.3902 24.9676 39.257L24.8494 39.206V34.249C24.8494 31.5254 24.8553 29.2949 24.8642 29.2949C24.873 29.2949 24.9883 29.3374 25.1212 29.3912C25.455 29.5216 25.6589 29.5698 26.0607 29.6066C26.6043 29.6576 27.4522 29.5953 28.0814 29.4621C28.2262 29.4309 28.3532 29.4111 28.368 29.4139C28.3916 29.4224 27.6619 30.2301 26.9352 31.001C26.2941 31.6841 26.0725 32.0582 26.0016 32.5967C25.9839 32.7327 25.9721 33.566 25.9721 34.6911C25.975 35.7171 25.9721 36.5589 25.9661 36.5617C25.9602 36.5645 25.8864 36.6099 25.8007 36.6637C25.4905 36.8479 25.331 37.154 25.3576 37.5111C25.3753 37.7435 25.458 37.9249 25.6175 38.0921C26.0755 38.5683 26.9027 38.4464 27.204 37.8597C27.2749 37.7209 27.2867 37.6642 27.2867 37.4573C27.2867 37.2419 27.2749 37.1937 27.1892 37.0265C27.0858 36.8224 26.9145 36.658 26.749 36.6014L26.6486 36.5645L26.6604 34.6515C26.6722 32.5768 26.6722 32.5655 26.8406 32.2481C26.9588 32.0242 27.2247 31.7209 28.3207 30.5589C28.9441 29.8957 29.1273 29.7002 29.5468 29.2382L29.857 28.8981L30.2529 28.7139C30.8614 28.4276 31.2071 28.2349 31.6443 27.9401C32.4863 27.3676 32.8733 27.0502 34.1555 25.8683C35.1452 24.9557 35.5381 24.627 36.061 24.2755C36.3831 24.0573 36.6224 23.9354 37.0212 23.7852C37.3787 23.652 38.2797 23.3913 38.3299 23.4083C38.3447 23.4111 37.7745 23.9496 37.0625 24.6043C35.3786 26.1433 35.4347 26.0951 34.4362 26.9992C32.9531 28.3454 32.3859 28.8669 31.8068 29.4139C31.3135 29.8815 31.2307 29.9467 31.151 29.9467C31.0003 29.9467 30.7462 30.0516 30.6044 30.1735C30.5306 30.233 30.4301 30.3577 30.3799 30.4512L30.2853 30.6184L30.0313 30.6354C29.8658 30.6468 29.7447 30.6723 29.6856 30.7063C29.5822 30.763 29.1007 31.2589 28.625 31.7974C28.4566 31.9845 28.2498 32.2141 28.1671 32.3076C28.0814 32.3983 27.9751 32.5457 27.9308 32.6335L27.848 32.7951L27.8392 35.975L27.8333 39.155L27.7535 39.2116C27.7121 39.2456 27.4817 39.3675 27.2395 39.4837C26.9913 39.6028 26.7786 39.7275 26.7431 39.77C26.622 39.9173 26.687 40.1923 26.8731 40.3085C26.9765 40.3736 27.1065 40.3481 27.4167 40.2064C28.7727 39.5829 29.9072 38.6901 30.9146 37.4488C31.6502 36.5447 32.3091 35.2891 32.7374 33.9713C33.2131 32.5088 33.2958 32.2878 33.544 31.8031C33.6799 31.5367 33.8867 31.1881 33.9989 31.0237C34.2471 30.6638 34.6193 30.216 34.6666 30.216C34.7493 30.216 34.7582 30.8933 34.6814 31.378C34.6666 31.4857 34.6075 31.7152 34.5514 31.8825C34.4362 32.2396 34.4303 32.3076 34.51 32.4323C34.5868 32.557 34.7257 32.6222 34.8704 32.6023C35.0152 32.5825 35.0802 32.5287 35.157 32.3586C35.2456 32.1602 35.417 31.4999 35.4584 31.2108C35.5056 30.8537 35.479 30.2301 35.3993 29.8589L35.3343 29.5613L35.5647 29.3487C36.6076 28.3879 36.6164 28.3794 36.6401 28.4333C36.6489 28.4645 36.6696 28.626 36.6814 28.7989C36.7051 29.1843 36.6608 29.6661 36.5633 30.0544C36.448 30.5136 36.4687 30.6553 36.6667 30.7545C36.841 30.8395 37.0596 30.7715 37.1512 30.6014C37.2339 30.4512 37.3432 30.0403 37.3934 29.7002C37.4584 29.2552 37.4377 28.5636 37.3432 28.1073L37.2782 27.7871L37.4673 27.6255C37.5707 27.5377 37.8454 27.2968 38.0729 27.0927C38.3034 26.8858 38.4983 26.7158 38.5072 26.7158C38.5456 26.7158 38.5604 26.9085 38.5604 27.3931C38.5604 27.8041 38.5456 27.994 38.4983 28.2604C38.4008 28.7819 38.3979 28.8216 38.4511 28.9208C38.5486 29.1021 38.8322 29.156 38.9976 29.0256C39.296 28.7819 39.4053 27.4583 39.2074 26.4182L39.1512 26.1093L39.7185 25.5566C40.0316 25.2505 40.3005 25.0011 40.3152 25.0011C40.4009 25.0011 40.4039 26.2226 40.3152 26.6307C40.2473 26.9538 40.2562 27.0672 40.3536 27.1721C40.4157 27.2373 40.4689 27.2628 40.5693 27.2741C40.847 27.3053 40.9563 27.1806 41.0597 26.7158C41.1365 26.3672 41.1365 25.1768 41.0568 24.7885C40.9504 24.2557 40.9356 24.3237 41.2488 23.995C41.4024 23.8362 41.6358 23.5812 41.7717 23.431C41.9076 23.2807 42.0287 23.156 42.0435 23.1504C42.1085 23.1277 42.1469 23.8844 42.1026 24.3351C42.0287 25.1173 42.0258 25.106 42.1144 25.2052C42.203 25.3043 42.3655 25.3639 42.4837 25.3355C42.596 25.3129 42.7201 25.191 42.7525 25.0748C42.7673 25.0181 42.8028 24.8254 42.8294 24.6468C42.8944 24.2104 42.8707 23.2751 42.785 22.8046C42.6964 22.3228 42.6994 22.2916 42.8441 22.1698C42.9121 22.1159 43.1396 21.9855 43.3493 21.8807C43.8516 21.6313 44.1765 21.4074 44.5429 21.0616C45.1249 20.5061 45.4676 19.8627 45.5562 19.1542C45.5739 19.0267 45.5798 18.8849 45.571 18.8368C45.5414 18.7036 45.5798 18.6242 45.7039 18.5448C45.7807 18.4967 45.8457 18.4173 45.8989 18.3153C46.1884 17.7484 45.8191 15.8807 45.2608 15.0928C44.9919 14.7102 44.4926 14.2709 43.89 13.8855C43.3818 13.5595 42.2001 12.8935 41.6713 12.6384C40.6904 12.1595 39.556 11.7032 38.4452 11.3432C38.0847 11.2242 37.7214 11.0938 37.6357 11.0541C37.5411 11.0088 37.3609 10.8614 37.1571 10.6658C36.6105 10.1472 36.2058 9.85811 35.609 9.57185C34.8025 9.18357 34.0698 9.0362 33.0949 9.06737C32.2204 9.09571 31.5675 9.25159 30.823 9.6087C30.501 9.76458 30.5631 9.76458 28.9116 9.59736C28.0578 9.51234 27.6944 9.50383 27.2158 9.55201C26.9027 9.58602 26.6515 9.59169 26.2498 9.57752C25.9543 9.56902 25.6973 9.55201 25.6825 9.54351C25.6678 9.53501 25.5555 9.32812 25.4314 9.08721C24.9971 8.22846 24.3531 7.43489 24.0488 7.37537C23.8213 7.33286 23.5761 7.57093 23.6234 7.78916C23.6352 7.83734 23.7593 7.99889 23.9218 8.17461C24.0754 8.34182 24.2792 8.58556 24.3738 8.71877C24.5865 9.01636 24.8996 9.59169 24.8612 9.62287C24.8465 9.63421 24.684 9.65971 24.5038 9.67955C24.3206 9.69656 24.1345 9.71923 24.0872 9.72773C24.0074 9.74474 23.9897 9.72773 23.8302 9.5095C23.3457 8.84631 22.5303 8.05841 21.7208 7.47457C20.8818 6.87372 19.8773 6.40892 18.8876 6.16801C18.1609 5.99229 17.8595 5.96112 17.7354 6.04331ZM20.1964 7.39804C20.864 7.71264 21.6026 8.23979 22.2821 8.88882C22.675 9.26576 23.195 9.83543 23.195 9.88928C23.195 9.90062 23.1389 9.92046 23.0709 9.93746C23 9.95447 22.7696 10.0112 22.5539 10.065C22.3412 10.1188 22.1521 10.1642 22.1344 10.1642C22.1196 10.1642 22.0487 10.0707 21.9808 9.9573C21.7976 9.65688 21.6026 9.3848 21.2156 8.89165C20.7902 8.35316 20.4948 8.01873 20.025 7.55959C19.6853 7.22516 19.6705 7.20815 19.768 7.22516C19.8241 7.2365 20.0191 7.31302 20.1964 7.39804ZM12.3822 7.72681C12.4177 7.74948 12.4147 7.75515 12.3615 7.75515C12.3231 7.75515 12.2936 7.74098 12.2936 7.72681C12.2936 7.68996 12.3261 7.68996 12.3822 7.72681ZM14.5743 7.85718C15.6763 8.07824 17.1682 8.74994 18.2022 9.48966C18.7458 9.88078 19.7089 10.6942 19.9275 10.9493L20.0043 11.0371L19.6616 11.2242C19.4726 11.329 19.183 11.4991 19.0206 11.604C18.8551 11.7088 18.7044 11.8023 18.6867 11.8137C18.666 11.825 18.5154 11.6635 18.3027 11.4027C17.1741 10.0168 16.0456 8.99652 14.7073 8.1491C14.465 7.99605 14.2434 7.86285 14.2109 7.85434C14.1518 7.83451 14.1312 7.78349 14.1843 7.78349C14.1991 7.78349 14.3764 7.8175 14.5743 7.85718ZM8.28458 9.65971C8.44707 9.7419 8.50911 10.0593 8.39094 10.2039C8.15164 10.4958 7.68486 10.3456 7.68486 9.97714C7.68486 9.69089 8.00983 9.518 8.28458 9.65971ZM34.0816 9.83827C34.7257 9.9488 35.482 10.2662 35.999 10.6432C36.389 10.9266 36.4746 11.0144 37.9222 12.6441C38.2118 12.97 38.5574 13.3526 38.6874 13.4943C38.8204 13.6332 38.9799 13.8061 39.0419 13.8741L39.1572 14.0017L39.1394 14.7357C39.1187 15.5293 39.1306 15.6058 39.2694 15.7022C39.358 15.7589 39.5589 15.7617 39.6446 15.7022C39.7776 15.6143 39.7894 15.5435 39.813 14.7952C39.8248 14.407 39.8248 14.0187 39.813 13.9365C39.7864 13.7579 39.683 13.6077 39.2369 13.1117C38.6342 12.44 38.3802 12.1453 38.3802 12.1198C38.3802 12.0518 40.4068 12.8198 40.6757 12.9899C40.7613 13.0437 40.7643 13.0551 40.8293 13.6049C40.8884 14.098 40.9238 14.1802 41.0922 14.2284C41.2163 14.2624 41.3552 14.2057 41.4113 14.0952C41.4556 14.0187 41.4527 13.979 41.4083 13.6729C41.3817 13.4858 41.364 13.3271 41.3729 13.3215C41.4172 13.2761 43.0421 14.2001 43.6034 14.5912C44.1145 14.9454 44.3449 15.1438 44.5695 15.4301C44.8826 15.8297 45.0628 16.303 45.178 17.0286C45.2549 17.5019 45.2667 17.9412 45.2105 18.0375C45.1603 18.1226 45.1012 18.1452 44.342 18.372C42.6314 18.8821 42.0258 19.038 41.1129 19.2024C39.748 19.4518 38.8529 19.5538 37.6061 19.6077C36.0049 19.6757 34.708 19.5141 33.4169 19.089C33.1126 18.9898 32.4095 18.6639 32.4213 18.6299C32.4243 18.6157 32.4952 18.5845 32.5749 18.5562C32.7581 18.4967 32.8438 18.3946 32.8054 18.2813C32.7256 18.0432 32.1554 18.0404 31.6473 18.2784C31.3755 18.406 31.0535 18.7121 30.9323 18.9615C30.826 19.1797 30.8083 19.4064 30.891 19.5255C30.956 19.6218 31.1066 19.67 31.216 19.6303C31.3105 19.5963 31.34 19.5595 31.5203 19.2676C31.5912 19.1542 31.665 19.055 31.6857 19.0465C31.7064 19.038 31.8511 19.1088 32.0018 19.1995C32.6518 19.5935 33.5056 19.9166 34.3328 20.081C35.3047 20.2765 35.8335 20.3247 37.0212 20.3219C38.1379 20.3219 38.5102 20.2964 39.8307 20.1263C41.1572 19.9563 42.2149 19.7324 43.6093 19.3271C44.8442 18.97 44.8058 18.9785 44.8147 19.0352C44.8294 19.1145 44.7408 19.4461 44.6404 19.6813C44.4158 20.2227 43.9106 20.7357 43.2371 21.1013C42.7496 21.3677 42.6757 21.3904 40.2562 22.0932C39.9312 22.1868 39.3344 22.354 38.9267 22.4617C37.6593 22.7989 37.553 22.8301 36.9326 23.0313C36.4008 23.2042 36.2619 23.2354 35.8099 23.3006C35.5263 23.3403 35.0743 23.3856 34.8054 23.4026C34.5366 23.4196 34.2737 23.4451 34.2234 23.4593C34.0876 23.5018 34.0078 23.6095 34.0078 23.7512C34.0107 23.9071 34.0846 23.995 34.2412 24.0233C34.3653 24.0431 34.9975 24.012 35.1068 23.9808C35.2043 23.9496 35.16 24.0063 35.0034 24.1168C34.8498 24.2217 34.4332 24.593 33.1156 25.8003C32.1052 26.7243 31.5468 27.1579 30.8201 27.5859C29.6413 28.2831 28.4862 28.694 27.272 28.8442C26.8524 28.8981 26.0636 28.8924 25.8155 28.8329C25.3753 28.728 25.1153 28.5523 24.9617 28.2519L24.8642 28.062V27.5547V27.0474L25.1803 26.9964C25.7003 26.9113 26.1848 26.7271 26.6043 26.4522L26.7786 26.3388L27.266 26.8263C27.5319 27.0927 27.786 27.3308 27.8303 27.3535C27.8864 27.379 28.0667 27.3931 28.4684 27.4016C28.9973 27.4101 29.0357 27.4073 29.1509 27.3478C29.2159 27.3138 29.3222 27.2259 29.3843 27.1494C29.4493 27.0757 29.6384 26.8716 29.8068 26.6959L30.114 26.3785L30.4301 26.3955C30.7315 26.4097 30.7521 26.4068 30.9176 26.3332C31.0151 26.2906 31.1421 26.2113 31.2012 26.1603C31.47 25.9279 31.5646 25.4291 31.405 25.1003C31.2987 24.8821 31.2041 24.7857 30.9885 24.6723C30.8112 24.5816 30.7876 24.576 30.5069 24.576C30.2588 24.576 30.1908 24.5873 30.0756 24.6412C29.6502 24.8424 29.4375 25.2987 29.5615 25.738L29.6118 25.9222L29.532 26.0441C29.4877 26.1093 29.3547 26.2538 29.2395 26.3615C29.1243 26.472 28.9855 26.6081 28.9323 26.6676L28.8377 26.7725H28.5009C28.1051 26.7725 28.1257 26.7838 27.6767 26.319C27.2513 25.8797 27.269 25.9335 27.4581 25.6898C27.8274 25.2137 28.1139 24.5703 28.1907 24.046L28.2262 23.7994L30.3563 23.7909C32.3681 23.7824 32.4922 23.7796 32.5897 23.7285C32.6458 23.7002 32.9856 23.397 33.346 23.0568C33.8748 22.5524 34.0137 22.4362 34.0846 22.4305C34.1319 22.4305 34.773 22.4248 35.5056 22.4248L36.841 22.422L36.9237 22.3426C36.9946 22.2775 37.0064 22.2406 37.0064 22.1074C37.0064 21.9685 36.9946 21.9402 36.9237 21.8807L36.841 21.8126H35.3579C33.931 21.8126 33.8689 21.8155 33.7419 21.8722C33.6474 21.9118 33.4199 22.1074 32.9738 22.5354C32.6104 22.8783 32.3061 23.1475 32.2647 23.156C32.2234 23.1674 31.3016 23.1702 30.2144 23.1674L28.2351 23.1589L28.173 22.8443C28.0637 22.3115 27.8953 21.909 27.6028 21.4754C27.5349 21.3762 27.4788 21.277 27.4788 21.26C27.4788 21.2401 27.6678 21.0361 27.8953 20.8037C28.1257 20.5713 28.3355 20.3389 28.3591 20.2822C28.3887 20.217 28.4094 20.0385 28.4212 19.755L28.4389 19.3271L28.5718 19.1599C28.6428 19.0692 28.7668 18.9275 28.8436 18.8481L28.9855 18.7036L29.3075 18.7177C29.6029 18.7291 29.6413 18.7262 29.792 18.6582C29.9988 18.5675 30.1819 18.3918 30.2794 18.1877C30.3415 18.0602 30.3563 17.9865 30.3563 17.8108C30.3563 17.6266 30.3415 17.5671 30.2588 17.4083C30.1435 17.1844 29.9279 16.9889 29.727 16.9237C29.5379 16.8642 29.2602 16.8642 29.0741 16.9237C28.8909 16.9832 28.628 17.2043 28.5423 17.3772C28.4241 17.6124 28.4153 17.978 28.5246 18.2161C28.5394 18.2473 28.4537 18.3578 28.2321 18.5987C28.0548 18.7886 27.8805 19.0097 27.8333 19.1032C27.7476 19.2647 27.7446 19.2846 27.7446 19.6558V20.0413L27.3694 20.4012C27.1626 20.6025 26.9824 20.764 26.9706 20.764C26.9558 20.764 26.8731 20.7073 26.7845 20.6393C26.6959 20.5684 26.5629 20.4778 26.4891 20.4381C26.4152 20.3956 26.3561 20.3559 26.3561 20.3474C26.3561 20.3275 26.7963 19.6502 27.009 19.3469C27.1006 19.2137 27.2129 19.0352 27.2601 18.9501L27.3458 18.7943L27.3547 17.1873L27.3606 15.5831L27.4876 15.5123C27.851 15.3054 28.046 14.9228 27.9751 14.5572C27.8746 14.0328 27.3547 13.6786 26.8524 13.7919C26.5156 13.8685 26.2704 14.0498 26.1434 14.3163C26.0518 14.5118 26.0489 14.8803 26.1375 15.0701C26.2202 15.2374 26.3532 15.3819 26.5334 15.4924L26.6811 15.5831V17.1079V18.6327L26.5836 18.7999C26.5304 18.8906 26.3916 19.0975 26.2793 19.2619C26.1227 19.4858 25.8214 19.9478 25.7475 20.0781C25.7475 20.081 25.6057 20.0526 25.4373 20.0158C25.2689 19.9761 25.068 19.9364 24.9912 19.9251L24.8494 19.9081V18.525V17.1448L24.9676 17.0937C25.1212 17.0286 25.3369 16.8047 25.4137 16.6346C25.5023 16.4447 25.52 16.1613 25.458 15.9799C25.396 15.807 25.2158 15.603 25.006 15.4726L24.8494 15.3762V14.3361C24.8494 13.2336 24.8671 12.9899 24.9824 12.5619C25.1655 11.8647 25.6796 11.1902 26.3561 10.7622C26.7343 10.5241 26.9352 10.4334 27.2867 10.3427C27.5497 10.2747 27.6324 10.2662 28.0401 10.2691C28.303 10.2719 28.7225 10.2974 29.0268 10.3314C29.5143 10.3853 29.6384 10.4108 29.5615 10.4363C29.5084 10.4561 28.5394 11.1023 28.2469 11.312C28.0932 11.4226 27.9514 11.5218 27.9337 11.5331C27.913 11.5444 27.8215 11.5189 27.7299 11.4793C27.5969 11.4197 27.5112 11.4027 27.334 11.3999C27.1331 11.3971 27.0829 11.4084 26.9086 11.4906C26.557 11.6578 26.3738 11.9469 26.3768 12.338C26.3768 12.6214 26.4625 12.817 26.6693 12.9984C26.8761 13.1798 27.0327 13.2364 27.331 13.2364C27.5437 13.2364 27.6058 13.2251 27.7299 13.1628C27.9337 13.0636 28.1198 12.8822 28.2055 12.7064C28.2616 12.5902 28.2764 12.5109 28.2764 12.3295V12.0999L28.5659 11.9129C28.7225 11.808 29.2041 11.4934 29.6354 11.2128C30.0667 10.9323 30.5246 10.6347 30.6546 10.5496C31.275 10.1444 31.9841 9.88361 32.7108 9.79575C33.0122 9.76174 33.7596 9.78442 34.0816 9.83827ZM11.9686 10.5383C13.5049 10.8416 15.0677 11.6465 16.4946 12.8737C16.6187 12.9814 16.7457 13.1032 16.7812 13.1429L16.8403 13.2166L16.273 13.7579C15.9628 14.0584 15.6999 14.2936 15.691 14.2822C15.6792 14.2681 15.5345 14.1037 15.369 13.911C14.9229 13.398 14.2109 12.6554 13.8328 12.3125C13.2035 11.74 12.3349 11.0853 11.6998 10.7112C11.4811 10.5808 11.2832 10.4646 11.2596 10.4476C11.1916 10.4051 11.4664 10.4391 11.9686 10.5383ZM27.4226 11.9497C27.7505 12.0376 27.8155 12.4627 27.529 12.6299C27.334 12.7433 27.0711 12.6724 26.9617 12.4797C26.8524 12.2842 26.9736 12.0149 27.1981 11.9526C27.3163 11.9185 27.3015 11.9185 27.4226 11.9497ZM22.5687 12.4032C22.7578 12.5137 22.805 12.8113 22.6573 12.9615C22.5066 13.1146 22.3382 13.1486 22.1639 13.0607C21.8862 12.919 21.8951 12.4854 22.1758 12.3749C22.2851 12.3295 22.4682 12.3437 22.5687 12.4032ZM9.76174 13.6927C10.7662 13.8713 11.8948 14.3078 12.8697 14.8973C13.2921 15.1523 14.1253 15.7674 14.1253 15.8269C14.1253 15.8382 13.8978 16.0649 13.6201 16.3285L13.1178 16.8103L13.044 16.7281C11.9007 15.4726 10.6983 14.4495 9.67016 13.8571C9.33927 13.6672 9.27428 13.6219 9.33041 13.6219C9.35109 13.6219 9.54312 13.6531 9.76174 13.6927ZM27.1804 14.3446C27.2276 14.3673 27.3015 14.4268 27.3458 14.4778C27.4167 14.5572 27.4256 14.5855 27.4138 14.7187C27.399 14.8973 27.2956 15.022 27.1272 15.0673C26.8495 15.141 26.5777 14.9029 26.6338 14.6365C26.687 14.3786 26.9588 14.2341 27.1804 14.3446ZM16.4001 15.8014V16.9605L15.6704 17.7031C15.2656 18.1112 14.917 18.4853 14.8934 18.5363C14.8579 18.6072 14.8491 18.8424 14.8402 19.8627L14.8313 21.1041H14.7368C14.6541 21.1041 14.592 21.0559 14.2877 20.764L13.9332 20.4239L13.945 18.7291L13.9539 17.0371L14.92 16.099C15.4488 15.5831 15.9894 15.0446 16.1194 14.9029C16.2494 14.7612 16.3646 14.645 16.3794 14.645C16.3912 14.6422 16.4001 15.1637 16.4001 15.8014ZM18.8669 14.9369C19.0353 15.0446 19.0856 15.3082 18.9674 15.4669C18.8019 15.6908 18.4386 15.6795 18.2908 15.4499C18.0752 15.1155 18.5213 14.7187 18.8669 14.9369ZM23.6441 16.7593C23.7091 16.867 23.8981 17.0342 24.0222 17.0994L24.1256 17.1561L24.1345 18.5278L24.1404 19.8996L23.8095 19.9676C23.6263 20.0044 23.4432 20.0413 23.4018 20.047C23.3309 20.0583 23.3073 20.03 23.0768 19.6388C22.6869 18.9841 22.548 18.7036 22.4978 18.4683C22.4032 18.0404 22.5126 17.6067 22.8109 17.2241C22.9764 17.0059 23.1123 16.8925 23.3516 16.765C23.5436 16.663 23.585 16.663 23.6441 16.7593ZM8.76318 16.8302C9.44858 17.0427 10.518 17.6577 11.1119 18.1821L11.2743 18.3238L11.2005 18.3833C11.106 18.457 10.6214 18.8056 10.5003 18.8878L10.4058 18.9501L10.3231 18.8453C9.93604 18.3436 9.44858 17.8051 8.93453 17.3091C8.60365 16.9889 8.33481 16.7253 8.33481 16.7196C8.33481 16.7055 8.47366 16.7395 8.76318 16.8302ZM29.6324 17.4962C29.6738 17.5274 29.7329 17.5982 29.7654 17.6577C29.8392 17.8051 29.8097 17.9412 29.6649 18.0772C29.5675 18.1707 29.535 18.1849 29.4197 18.1849C29.2425 18.1849 29.145 18.1396 29.0682 18.0205C28.95 17.8391 29.012 17.6011 29.21 17.4735C29.3163 17.4027 29.5143 17.414 29.6324 17.4962ZM17.5907 19.3696C17.6734 19.4178 17.7886 19.6077 17.7886 19.7012C17.7886 19.7295 17.762 19.8089 17.7295 19.8741C17.6291 20.0725 17.375 20.1433 17.1771 20.0271C16.9614 19.9024 16.9259 19.5992 17.1091 19.4178C17.245 19.2817 17.4045 19.2676 17.5907 19.3696ZM4.79259 19.8542C5.12347 19.9761 5.50753 20.1688 5.80887 20.3616C6.09248 20.5458 6.70698 21.0191 6.70993 21.0559C6.70993 21.0814 5.88273 21.4725 5.82955 21.4725C5.81182 21.4725 5.79114 21.447 5.77933 21.4159C5.72319 21.2458 5.02302 20.319 4.69509 19.9846C4.57987 19.8684 4.50602 19.772 4.52965 19.772C4.55033 19.772 4.67146 19.8089 4.79259 19.8542ZM23.7681 21.0247C23.842 21.0474 23.9424 21.1126 24.0252 21.192C24.1345 21.294 24.1699 21.3535 24.1995 21.4754C24.2231 21.5859 24.232 22.1527 24.2231 23.5557L24.2142 25.4829L24.1256 25.6359C24.0193 25.823 23.8656 25.925 23.6706 25.9449C23.3132 25.976 23.0177 25.7266 23.0177 25.3894C23.0177 25.2477 23.0946 25.1116 23.2216 25.0238C23.3782 24.9189 23.4018 24.7262 23.2777 24.5958C23.1507 24.4654 22.9527 24.5335 22.7282 24.7885C22.5687 24.9671 22.4682 24.9784 22.2733 24.8367C22.0842 24.7007 22.0103 24.5391 22.0192 24.2897C22.0251 24.1055 22.0162 24.0772 21.9453 23.9836C21.8212 23.8306 21.774 23.6945 21.771 23.499C21.771 23.3091 21.8212 23.1844 21.9749 22.9973C22.0605 22.8953 22.0605 22.8925 22.034 22.6941C22.0074 22.507 22.0103 22.4843 22.0783 22.3596C22.1639 22.1953 22.3855 22.0394 22.5303 22.0394C22.61 22.0394 22.6455 22.0649 22.7637 22.2123C22.9084 22.388 23.0621 22.4815 23.1655 22.4503C23.2482 22.4248 23.3723 22.2718 23.3723 22.1924C23.3723 22.1556 23.3279 22.0762 23.2718 22.0195C23.0296 21.7588 22.9646 21.5802 23.0443 21.379C23.0916 21.2657 23.26 21.0984 23.387 21.0446C23.5259 20.9822 23.6027 20.9794 23.7681 21.0247ZM25.65 21.0559C25.7298 21.0956 25.8184 21.175 25.8775 21.2571C25.9573 21.3734 25.9721 21.4187 25.9721 21.5604C25.9721 21.722 25.9661 21.7305 25.8096 21.9005C25.6175 22.1074 25.588 22.1839 25.6619 22.3115C25.7209 22.4192 25.8421 22.4758 25.9514 22.4503C26.0252 22.4305 26.2173 22.2519 26.3443 22.0819C26.4034 21.9997 26.4093 21.9997 26.5275 22.0337C26.6988 22.0847 26.8377 22.2094 26.9174 22.3852C26.9795 22.5212 26.9824 22.5495 26.9499 22.6941C26.9056 22.9066 26.9056 22.9038 27.0179 23.0228C27.1715 23.1901 27.2217 23.3091 27.2217 23.499C27.2217 23.6974 27.1686 23.8306 27.0356 23.9751C26.9411 24.08 26.9411 24.0857 26.9588 24.2755C26.9736 24.4258 26.9677 24.4966 26.9322 24.5816C26.8465 24.78 26.6515 24.9302 26.4772 24.9302C26.4093 24.9302 26.3591 24.8962 26.2527 24.78C26.0725 24.5901 25.9809 24.5335 25.848 24.5335C25.7653 24.5335 25.7239 24.5505 25.6796 24.6071C25.5644 24.746 25.5998 24.8565 25.8273 25.0918C25.9602 25.2278 25.9721 25.2505 25.9721 25.3837C25.9721 25.721 25.6973 25.9704 25.3457 25.9449C25.1242 25.9279 24.9558 25.8202 24.8524 25.6246L24.7756 25.4857L24.7667 23.5217C24.7608 22.1726 24.7696 21.5207 24.7903 21.4414C24.8081 21.379 24.873 21.2742 24.9321 21.2118C25.1389 20.9936 25.4078 20.9341 25.65 21.0559ZM11.1621 21.4924C11.3009 21.5547 11.3777 21.6794 11.3777 21.8438C11.3777 22.0592 11.2094 22.2094 10.9612 22.2094C10.8578 22.2094 10.8194 22.1924 10.7278 22.1017C10.5269 21.909 10.5505 21.6568 10.7839 21.5094C10.9021 21.4329 11.0203 21.4272 11.1621 21.4924ZM15.2834 21.5859C15.4931 21.6426 15.6113 21.8892 15.5256 22.0932C15.4636 22.2463 15.3336 22.3313 15.1711 22.3313C14.7132 22.3313 14.6304 21.7163 15.0706 21.5774C15.1386 21.5547 15.1652 21.5547 15.2834 21.5859ZM41.5974 22.5127C41.494 22.6402 40.5782 23.6209 39.9873 24.2359C39.2428 25.0124 38.5161 25.7011 37.4348 26.6591C37.0212 27.0247 36.4303 27.5547 36.1201 27.8381C35.8129 28.1187 35.4524 28.4418 35.3225 28.558C34.7227 29.088 34.0757 29.7172 33.8542 29.9836C33.1865 30.7856 32.6843 31.7209 32.3238 32.8376C32.0018 33.8324 31.863 34.2405 31.73 34.5664C31.5616 34.9802 31.1805 35.7341 30.9442 36.1224C30.7699 36.4058 30.4094 36.9131 30.3415 36.967C30.306 36.9925 30.3031 36.7091 30.309 35.1956C30.3208 33.0842 30.2529 33.4101 30.826 32.7384C31.2396 32.2537 31.2898 32.1857 31.3607 31.9732C31.408 31.84 31.4198 31.8286 31.603 31.7493C31.9959 31.5792 32.2145 31.2703 32.2175 30.882C32.2175 30.6298 32.1761 30.4994 32.0402 30.3293L31.9398 30.2018L32.3031 29.8674C32.5011 29.6831 32.8497 29.3629 33.0772 29.156C33.6739 28.6118 36.5514 25.9987 37.228 25.3865C37.5441 25.0975 38.2206 24.4796 38.7288 24.012C39.2369 23.5415 39.7096 23.1135 39.7805 23.0568C39.8869 22.9747 39.9903 22.935 40.395 22.8244C40.6639 22.7508 41.0331 22.6402 41.2193 22.5807C41.6151 22.4503 41.6535 22.4418 41.5974 22.5127ZM30.693 25.157C30.9323 25.2958 30.9708 25.5708 30.7787 25.7436C30.6428 25.8627 30.501 25.8882 30.3563 25.8202C30.2204 25.755 30.1406 25.6558 30.1199 25.5226C30.0697 25.2278 30.4272 25.0011 30.693 25.157ZM22.3678 26.4182C22.8198 26.7129 23.3516 26.9283 23.8006 26.9992C23.9159 27.019 24.037 27.0389 24.0754 27.0445L24.1433 27.0587L24.1315 30.3378C24.1167 33.9089 24.1256 33.7729 23.9483 34.2887C23.904 34.419 23.7947 34.6628 23.7031 34.8328C23.5377 35.1474 23.0916 35.8078 22.9291 35.9835C22.8434 36.077 22.8375 36.077 22.8523 36.0119C22.9173 35.7228 22.9321 35.0227 22.9232 32.3699C22.9143 29.5159 22.9143 29.5074 22.8493 29.2864C22.7105 28.8159 22.6425 28.7337 21.5554 27.7446L21.0236 27.2599L21.5406 26.7611C21.8242 26.4862 22.0724 26.2623 22.093 26.2623C22.1137 26.2623 22.2378 26.3332 22.3678 26.4182ZM31.3962 30.5306C31.7684 30.7006 31.6384 31.2504 31.2219 31.2504C31.0919 31.2504 31.0653 31.2391 30.9619 31.1399C30.8585 31.0435 30.8467 31.0152 30.8467 30.8933C30.8467 30.5844 31.1185 30.4059 31.3962 30.5306ZM30.3031 31.2731C30.3178 31.2845 30.3622 31.3411 30.4006 31.3978C30.436 31.4573 30.5276 31.5537 30.6015 31.6132L30.7344 31.7238L30.6694 31.8485C30.569 32.0383 30.4124 32.2481 30.0815 32.6392C29.919 32.8347 29.7536 33.0501 29.7181 33.121L29.6502 33.2485L29.6354 35.5215L29.6206 37.7946L29.4286 37.9844C29.2454 38.1602 28.5334 38.7327 28.4921 38.7327C28.4832 38.7327 28.4832 37.4318 28.4921 35.8418C28.5039 33.6708 28.5187 32.9368 28.5453 32.8886C28.6221 32.7469 29.7063 31.531 29.9249 31.3411C30.0076 31.2703 30.0549 31.2504 30.1495 31.2504C30.2174 31.2504 30.2853 31.2618 30.3031 31.2731ZM26.5866 37.1824C26.7254 37.3156 26.749 37.5083 26.6456 37.6557C26.56 37.7775 26.4654 37.8257 26.3059 37.8257C26.0873 37.8257 25.8834 37.5933 25.9307 37.3893C26.0016 37.0775 26.3591 36.9641 26.5866 37.1824ZM24.6574 39.7246C24.8051 39.7926 24.879 39.9088 24.879 40.0704C24.879 40.2263 24.7903 40.368 24.6574 40.4218C24.5215 40.4757 24.4388 40.4728 24.3235 40.4048C24.037 40.2376 24.0399 39.8635 24.3324 39.7246C24.4801 39.6538 24.5067 39.6538 24.6574 39.7246Z" fill="white"/>
<path d="M32.9092 10.8458C32.079 10.9478 31.2725 11.3475 30.7998 11.8916C30.6521 12.0645 30.4926 12.3196 30.4482 12.4528C30.4335 12.501 30.4423 12.518 30.4778 12.518C30.5014 12.518 30.7732 12.3564 31.0746 12.1609C31.9047 11.6224 32.3863 11.424 33.0392 11.3503C33.893 11.2539 34.8354 11.5855 35.5001 12.2175C35.6153 12.3281 35.8724 12.6228 36.0673 12.8722C36.4544 13.3682 36.4662 13.3796 36.5903 13.4079L36.673 13.4277L36.6523 13.2662C36.6287 13.0706 36.5194 12.7419 36.413 12.5378C35.8901 11.5373 34.7497 10.8741 33.4912 10.8345C33.2814 10.826 33.0185 10.8316 32.9092 10.8458ZM36.2623 12.4216C36.2712 12.4726 36.2653 12.484 36.2446 12.4641C36.2003 12.4216 36.156 12.4244 36.1826 12.4669C36.1973 12.4953 36.1914 12.4953 36.1619 12.4669C36.1294 12.4386 36.1294 12.4273 36.1589 12.4074C36.1826 12.3933 36.1885 12.3649 36.1737 12.3309C36.156 12.2856 36.1589 12.2827 36.2003 12.3139C36.2269 12.3337 36.2535 12.3819 36.2623 12.4216Z" fill="white"/>
<path d="M33.0034 12.0544C32.8025 12.0742 32.4007 12.1819 32.1703 12.2783C31.8601 12.4058 31.6592 12.5192 31.1067 12.8876C30.51 13.2816 30.2323 13.4346 29.9723 13.5055C29.8098 13.5508 29.7566 13.5792 29.7448 13.6273C29.7212 13.7095 29.7921 13.8286 29.8925 13.8767C30.0077 13.9278 30.4332 13.9476 30.6016 13.9079C30.8202 13.8541 31.1776 13.667 31.5853 13.3949C32.058 13.0803 32.3682 12.9018 32.513 12.8564C32.6755 12.8054 33.0064 12.8366 33.1777 12.9188C33.3609 13.0067 33.4466 13.1342 33.4466 13.3212C33.4466 13.6415 33.1393 13.8569 32.8173 13.7634C32.6607 13.7209 32.4687 13.5338 32.4155 13.3723C32.3919 13.3071 32.3653 13.2532 32.3535 13.2532C32.3121 13.2532 32.2087 13.5281 32.1762 13.7209C32.0846 14.2764 32.386 14.8404 32.9 15.0699C33.6799 15.4214 34.5869 15.0501 34.8351 14.2764C34.903 14.0723 34.9148 13.7209 34.8617 13.5196C34.8439 13.4488 34.8351 13.3864 34.8439 13.3779C34.8646 13.3581 35.0744 13.5763 35.3905 13.9504C35.7686 14.3982 35.7982 14.4294 36.0227 14.5768C36.2709 14.7412 36.4629 14.7695 36.6608 14.6731C36.7288 14.6391 36.7849 14.5995 36.7849 14.5853C36.7849 14.5711 36.6845 14.4464 36.5604 14.3104C36.4363 14.1743 36.2561 13.9533 36.1557 13.8201C35.8809 13.4516 35.6387 13.1795 35.3344 12.899C34.6076 12.2244 33.8808 11.9637 33.0034 12.0544ZM34.6312 13.4318C34.714 13.4318 34.773 13.4346 34.7642 13.4431C34.7553 13.4516 34.7671 13.4771 34.7908 13.4998C34.8144 13.5225 34.8351 13.5905 34.8351 13.6528C34.8351 13.752 34.8174 13.7832 34.6815 13.9079C34.519 14.0553 34.451 14.0808 34.451 13.9901C34.451 13.9618 34.4215 13.9193 34.386 13.9023C34.3476 13.8824 34.3181 13.8682 34.3181 13.8711C34.3181 13.8739 34.2885 13.8682 34.2531 13.8597C34.2147 13.8484 34.194 13.8286 34.2058 13.8031C34.2147 13.7804 34.2029 13.7634 34.1822 13.7634C34.1526 13.7605 34.1556 13.752 34.191 13.735C34.2206 13.718 34.2354 13.6812 34.2294 13.6472C34.2206 13.6075 34.2413 13.5763 34.3033 13.5423C34.3535 13.5168 34.3919 13.4828 34.3919 13.4715C34.3919 13.4573 34.4067 13.4573 34.4215 13.4658C34.4392 13.4743 34.451 13.4601 34.454 13.4318C34.454 13.4034 34.4599 13.3921 34.4687 13.4091C34.4747 13.4233 34.5485 13.4346 34.6312 13.4318Z" fill="white"/>
<path d="M31.1133 14.6626C31.1133 14.8298 31.2374 15.0423 31.4648 15.2747C31.84 15.6517 32.298 15.9124 32.8416 16.0513C33.0897 16.1137 33.199 16.125 33.521 16.125C34.106 16.125 34.4635 16.0371 34.9421 15.7736C35.2168 15.6234 35.6038 15.2776 35.6038 15.1812C35.6038 15.1189 35.5979 15.116 35.4148 15.1302C35.273 15.1415 35.1489 15.1784 34.9184 15.2804C34.3955 15.51 34.2921 15.5468 34.0262 15.5922C33.5624 15.6687 33.1134 15.6375 32.6997 15.4986C32.4545 15.4136 32.0675 15.1585 31.7514 14.8666C31.5298 14.6654 31.453 14.6116 31.3467 14.5889C31.1281 14.5407 31.1133 14.5435 31.1133 14.6626Z" fill="white"/>
<path d="M43.1691 15.4648C43.0539 15.4903 42.9446 15.564 42.8589 15.6745C42.8146 15.7312 42.7969 15.7936 42.7969 15.9183C42.7969 16.1705 42.8973 16.2924 43.2548 16.4624C43.5739 16.6155 43.6507 16.692 43.7186 16.9216L43.7688 17.0859L43.8397 17.0066C43.8782 16.9612 43.9284 16.8819 43.955 16.828C44.0465 16.6296 43.9875 16.0713 43.8486 15.8077C43.7127 15.5583 43.4261 15.4109 43.1691 15.4648Z" fill="white"/>
<path d="M29.8866 15.5257C29.8039 15.571 29.7832 15.605 29.7832 15.7099C29.7832 15.8148 29.8039 15.8318 30.3593 16.2201C31.1954 16.8039 31.4849 16.9626 32.0137 17.1327C32.4746 17.2772 32.6814 17.3084 33.3195 17.3254C34.002 17.3424 34.2619 17.3169 34.6874 17.1865C35.1985 17.0306 35.6091 16.7982 36.0168 16.4355C36.2088 16.2654 36.3329 16.1067 36.3713 15.9763L36.3979 15.8856L36.3034 15.9026C36.1497 15.9338 35.813 16.0784 35.5293 16.2314C34.9887 16.5262 34.5485 16.6792 33.9931 16.7727C33.4259 16.8663 32.838 16.8124 32.191 16.6055C31.7833 16.478 31.5351 16.3533 30.9856 15.999C30.2529 15.5257 30.0461 15.4378 29.8866 15.5257Z" fill="white"/>
<path d="M32.2791 20.7115C32.2466 20.7285 32.0251 20.9241 31.7887 21.148L31.3544 21.5561H30.4947C29.57 21.5561 29.5169 21.5646 29.4164 21.7035C29.3898 21.7375 29.3691 21.8168 29.3691 21.8764C29.3691 21.9642 29.3898 22.0067 29.4666 22.0804C29.5966 22.2051 29.7355 22.2165 30.7193 22.2023C31.3928 22.1938 31.4962 22.1853 31.5996 22.1371C31.6676 22.1059 31.9335 21.8792 32.2289 21.6014L32.7371 21.1168V20.9808C32.7371 20.8674 32.7223 20.8277 32.6514 20.7597C32.5568 20.6718 32.3944 20.6492 32.2791 20.7115Z" fill="white"/>
<path d="M4.1992 23.9663C3.91559 24.0287 3.86832 24.4283 4.13126 24.5586C4.17262 24.5785 4.42078 24.5898 4.81075 24.5927C5.19481 24.5927 5.46956 24.6068 5.54046 24.6267C5.66454 24.6635 5.87135 24.8676 7.19783 26.2762C7.49031 26.5851 7.92755 27.0442 8.1698 27.2936C8.76657 27.9143 9.01178 28.1949 9.04723 28.3083C9.06496 28.3678 9.07382 29.0678 9.06791 30.2298L9.062 32.0579L9.15949 32.3413C9.21267 32.4972 9.35448 32.8259 9.47856 33.0697L9.70309 33.5146L9.62332 33.6025C9.56128 33.6733 9.54651 33.7215 9.54651 33.8406C9.54651 34.0248 9.62037 34.1268 9.7799 34.1693C9.98966 34.2232 10.0222 34.1977 10.9291 33.3162C12.7283 31.5619 13.0415 31.2671 13.328 31.0687C13.6619 30.8392 14.173 30.5954 14.4802 30.5132C15.0356 30.3715 15.8333 30.329 16.3739 30.4169C17.3725 30.5784 18.312 31.1339 19.1333 32.0465C19.6355 32.6105 19.8866 33.0187 20.0934 33.6308C20.4243 34.5945 20.4036 35.5892 20.0343 36.4707C19.7832 37.0715 19.5587 37.3578 18.5365 38.3752C18.1022 38.8089 17.7211 39.2 17.6886 39.2453C17.6206 39.3474 17.6206 39.5344 17.6856 39.6308C17.7536 39.7271 17.919 39.7895 18.052 39.7668C18.1258 39.7527 18.2026 39.7045 18.3031 39.6024C18.3858 39.5202 18.7846 39.1235 19.1923 38.7182C19.993 37.9246 20.2677 37.5902 20.5306 37.097C20.9265 36.3573 21.1186 35.4192 21.0417 34.62C20.9442 33.628 20.702 32.9818 20.12 32.1372C19.8836 31.8 19.7743 31.6781 19.3282 31.2501C18.6458 30.5983 18.2115 30.3035 17.5645 30.0484C16.1583 29.4958 14.7461 29.544 13.4521 30.1873C12.9292 30.4481 12.7638 30.5869 11.452 31.8453C10.7696 32.5 10.2024 33.0357 10.1935 33.0357C10.1669 33.0357 9.90103 32.432 9.80649 32.1684L9.73854 31.9728L9.73559 30.0428V28.1127L9.65287 27.954C9.6056 27.8576 9.46379 27.6847 9.3013 27.5175C9.15063 27.3645 8.88179 27.0867 8.70453 26.8968C8.52432 26.7098 8.01322 26.1741 7.56712 25.7065C7.11807 25.2417 6.59515 24.689 6.40312 24.485C5.91271 23.9606 5.95407 23.9748 5.02641 23.9578C4.62758 23.9521 4.25534 23.955 4.1992 23.9663Z" fill="white"/>
<path d="M4.59459 25.537C4.50891 25.6192 4.49414 25.6532 4.49414 25.7637C4.49414 25.8941 4.49709 25.8998 4.99047 26.4099C5.26226 26.6933 5.56951 27.0164 5.67587 27.1298C5.78222 27.2432 6.14856 27.6314 6.4883 27.9971C6.831 28.3598 7.14416 28.7028 7.18257 28.7566L7.25642 28.8558L7.27119 30.0603C7.28006 30.7235 7.29778 31.2875 7.31255 31.3159C7.36869 31.4264 7.59321 31.4803 7.7557 31.4207C7.91819 31.3641 7.92114 31.33 7.92114 30.049C7.92114 29.2866 7.90933 28.819 7.88865 28.7226C7.83547 28.4874 7.74093 28.34 7.45732 28.0481C7.31551 27.9007 6.95804 27.5237 6.66556 27.212C6.37308 26.9002 5.99493 26.4978 5.82358 26.3192C5.65223 26.1407 5.41293 25.8856 5.29181 25.7581C5.04955 25.4973 4.96388 25.4406 4.80139 25.4406C4.71867 25.4406 4.6714 25.4633 4.59459 25.537Z" fill="white"/>
<path d="M15.1062 31.4959C14.6897 31.5639 14.149 31.8048 13.8329 32.0627C13.762 32.1222 13.0825 32.7797 12.3233 33.5251C10.8107 35.0074 10.7959 35.0272 10.8786 35.237C10.9347 35.3758 11.0559 35.4609 11.1977 35.458C11.3336 35.4524 11.3867 35.4155 11.6556 35.1349C12.1165 34.656 13.9806 32.8449 14.214 32.6465C14.6276 32.2979 15.0294 32.1591 15.6321 32.1591C16.3854 32.1591 16.8522 32.3631 17.4815 32.964C18.1108 33.5676 18.3796 34.0466 18.4682 34.7155C18.5273 35.1633 18.4269 35.6593 18.1935 36.0844C18.1403 36.1751 17.9867 36.3678 17.8508 36.5095C17.576 36.7901 16.1609 38.2043 15.9807 38.3744C15.8832 38.4679 15.8684 38.4991 15.8684 38.6096C15.8684 38.8165 15.9482 38.9186 16.155 38.9752C16.2673 39.0036 16.4061 38.9186 16.6513 38.6748C16.7813 38.5444 17.2363 38.091 17.6587 37.6715C18.0812 37.2492 18.4741 36.8553 18.5332 36.7929C18.8021 36.4982 18.9498 36.2176 19.065 35.7868C19.2748 35.0102 19.1802 34.1373 18.8198 33.4939C18.4298 32.7996 17.6558 32.0599 17.0088 31.7651C16.4032 31.4874 15.7414 31.3938 15.1062 31.4959Z" fill="white"/>
<path d="M15.5783 32.962C15.3803 33.0101 15.1203 33.1802 15.0081 33.3361C14.8781 33.5203 14.819 33.7725 14.8604 33.9851C14.8781 34.0786 14.8958 34.175 14.8988 34.2005C14.9047 34.2288 14.4852 34.6568 13.8323 35.2916C13.2414 35.867 12.7333 36.3743 12.7008 36.4225C12.5501 36.6634 12.7658 36.9553 13.0553 36.9043C13.1735 36.8845 13.1439 36.9128 14.6181 35.4674L15.3892 34.7106L15.534 34.7532C15.7378 34.8155 16.0362 34.7872 16.2459 34.6908C16.5739 34.5378 16.76 34.2685 16.7777 33.9199C16.8132 33.2851 16.2164 32.8089 15.5783 32.962ZM16.045 33.543C16.1396 33.6053 16.2223 33.7612 16.2223 33.8717C16.2194 34.2628 15.6049 34.3592 15.4601 33.9936C15.3212 33.645 15.7319 33.3304 16.045 33.543Z" fill="white"/>
</g>
<defs>
<clipPath id="clip0_460_998">
<rect width="48" height="48" fill="white"/>
</clipPath>
</defs>
</svg>
